<?xml version="1.0" encoding="UTF-8"?>
<svg xmlns="http://www.w3.org/2000/svg" xmlns:xlink="http://www.w3.org/1999/xlink" width="517.99pt" height="404pt" viewBox="0 0 517.99 404" version="1.1">
<defs>
<clipPath id="clip1">
  <path d="M 391 240 L 517.988281 240 L 517.988281 346 L 391 346 Z M 391 240 "/>
</clipPath>
</defs>
<g id="surface1">
<path style=" stroke:none;fill-rule:nonzero;fill:rgb(30.198669%,37.298584%,54.899597%);fill-opacity:1;" d="M 66.332031 196.703125 L 103.667969 196.703125 L 169.667969 342.039063 L 130.667969 342.039063 L 118 311.707031 L 50.167969 311.789063 L 37.582031 342.039063 L 0 342.039063 L 66.332031 196.703125 "/>
<path style=" stroke:none;fill-rule:nonzero;fill:rgb(99.598694%,99.598694%,99.198914%);fill-opacity:1;" d="M 84.167969 231.371094 L 108 288.703125 L 60.332031 288.703125 Z M 84.167969 231.371094 "/>
<path style=" stroke:none;fill-rule:nonzero;fill:rgb(30.198669%,37.298584%,54.899597%);fill-opacity:1;" d="M 214.582031 242.953125 L 214.582031 214.703125 L 180.082031 214.703125 L 180.082031 242.953125 L 163.832031 242.953125 L 163.832031 264.203125 L 180.082031 264.203125 L 180.332031 321.957031 C 180.332031 321.957031 181.832031 345.082031 210.332031 342.582031 L 232.832031 341.832031 L 232.832031 321.207031 L 223.332031 321.082031 C 223.332031 321.082031 214.707031 322.832031 214.457031 314.957031 L 214.457031 263.828125 L 232.832031 263.953125 L 232.832031 242.703125 L 214.582031 242.953125 "/>
<path style=" stroke:none;fill-rule:nonzero;fill:rgb(30.198669%,37.298584%,54.899597%);fill-opacity:1;" d="M 232.667969 320.84375 C 230.121094 320.976563 227.507813 321.066406 224.714844 321.066406 C 216.378906 321.066406 214.027344 318.53125 214.027344 310.921875 L 214.027344 263.828125 L 232.667969 263.828125 L 232.667969 249.371094 C 232.667969 248.886719 232.730469 248.445313 232.832031 248.03125 L 232.832031 242.703125 L 214.027344 242.703125 L 214.027344 214.179688 L 180.082031 214.179688 L 180.082031 242.953125 L 163.832031 242.953125 L 163.832031 264.203125 L 180.082031 264.203125 L 180.300781 314.871094 C 180.300781 332.441406 185.039063 343.53125 215.292969 343.53125 C 219.988281 343.53125 226.839844 343.054688 232.667969 342.515625 L 232.667969 320.84375 "/>
<path style=" stroke:none;fill-rule:nonzero;fill:rgb(30.198669%,37.298584%,54.899597%);fill-opacity:1;" d="M 327.832031 240.789063 C 327.25 240.777344 326.675781 240.769531 326.117188 240.769531 C 307.574219 240.769531 298.300781 247.632813 286.433594 262.839844 L 286.058594 262.839844 L 286.058594 243.367188 L 254.535156 243.367188 L 254.535156 342.769531 L 287.171875 342.769531 L 287.171875 299.929688 C 287.171875 280.644531 297.742188 269.328125 320 269.328125 C 322.640625 269.328125 325.246094 269.585938 327.832031 269.996094 L 327.832031 240.789063 "/>
<g clip-path="url(#clip1)" clip-rule="nonzero">
<path style=" stroke:none;fill-rule:nonzero;fill:rgb(30.198669%,37.298584%,54.899597%);fill-opacity:1;" d="M 454.660156 323.039063 C 474.15625 323.039063 481.667969 311.777344 481.667969 291.769531 C 481.667969 277.703125 474.15625 262.371094 454.660156 262.371094 C 435.160156 262.371094 426.332031 276.039063 426.332031 291.769531 C 426.332031 311.777344 435.160156 323.039063 454.660156 323.039063 Z M 454.660156 240.769531 C 492.585938 240.769531 517.984375 263.703125 517.984375 290.15625 C 517.984375 328.652344 485.332031 345.039063 454.660156 345.039063 C 420.667969 345.039063 391.332031 328.652344 391.332031 290.15625 C 391.332031 260.371094 416.734375 240.769531 454.660156 240.769531 "/>
</g>
<path style=" stroke:none;fill-rule:nonzero;fill:rgb(30.198669%,37.298584%,54.899597%);fill-opacity:1;" d="M 376.332031 342.769531 L 341.582031 342.769531 L 341.582031 242.953125 L 376.332031 242.953125 L 376.332031 342.769531 "/>
<path style=" stroke:none;fill-rule:nonzero;fill:rgb(30.198669%,37.298584%,54.899597%);fill-opacity:1;" d="M 383.582031 214.453125 L 376.332031 227.703125 L 341.582031 227.703125 L 334.082031 214.453125 L 383.582031 214.453125 "/>
<path style=" stroke:none;fill-rule:nonzero;fill:rgb(0%,67.498779%,92.199707%);fill-opacity:1;" d="M 114.582031 402.414063 L 114.582031 397.335938 C 118.488281 399.222656 121.707031 400.167969 124.238281 400.167969 C 126.160156 400.167969 127.710938 399.632813 128.890625 398.566406 C 130.070313 397.5 130.660156 396.113281 130.660156 394.40625 C 130.660156 392.988281 130.273438 391.785156 129.5 390.792969 C 128.726563 389.800781 127.300781 388.691406 125.222656 387.472656 L 122.832031 386.03125 C 119.878906 384.273438 117.796875 382.617188 116.585938 381.0625 C 115.375 379.507813 114.769531 377.707031 114.769531 375.65625 C 114.769531 372.855469 115.738281 370.558594 117.675781 368.757813 C 119.613281 366.960938 122.082031 366.058594 125.082031 366.058594 C 127.753906 366.058594 130.574219 366.523438 133.542969 367.453125 L 133.542969 372.140625 C 129.886719 370.640625 127.160156 369.894531 125.363281 369.894531 C 123.660156 369.894531 122.253906 370.367188 121.144531 371.308594 C 120.035156 372.253906 119.480469 373.441406 119.480469 374.875 C 119.480469 376.078125 119.886719 377.144531 120.699219 378.070313 C 121.511719 379 122.996094 380.105469 125.152344 381.390625 L 127.636719 382.855469 C 130.636719 384.632813 132.730469 386.308594 133.917969 387.886719 C 135.105469 389.464844 135.699219 391.363281 135.699219 393.574219 C 135.699219 396.71875 134.589844 399.238281 132.371094 401.144531 C 130.152344 403.046875 127.207031 404 123.535156 404 C 121.191406 404 118.207031 403.472656 114.582031 402.414063 "/>
<path style=" stroke:none;fill-rule:nonzero;fill:rgb(0%,67.498779%,92.199707%);fill-opacity:1;" d="M 153.105469 403.097656 L 153.105469 366.964844 L 172.488281 366.964844 L 172.488281 370.796875 L 158.027344 370.796875 L 158.027344 382.394531 L 170.144531 382.394531 L 170.144531 386.179688 L 158.027344 386.179688 L 158.027344 399.265625 L 173.496094 399.265625 L 173.496094 403.097656 L 153.105469 403.097656 "/>
<path style=" stroke:none;fill-rule:nonzero;fill:rgb(0%,67.498779%,92.199707%);fill-opacity:1;" d="M 216.304688 402.121094 C 212.101563 403.375 208.4375 404 205.3125 404 C 199.796875 404 195.566406 402.367188 192.621094 399.105469 C 189.675781 395.84375 188.203125 391.148438 188.203125 385.03125 C 188.203125 379.007813 189.699219 374.339844 192.691406 371.027344 C 195.683594 367.71875 199.890625 366.058594 205.3125 366.058594 C 208.796875 366.058594 212.445313 366.605469 216.257813 367.695313 L 216.257813 372.433594 C 211.476563 370.738281 207.8125 369.894531 205.265625 369.894531 C 201.515625 369.894531 198.605469 371.214844 196.535156 373.859375 C 194.464844 376.507813 193.429688 380.238281 193.429688 385.054688 C 193.429688 389.824219 194.535156 393.535156 196.753906 396.1875 C 198.96875 398.839844 202.074219 400.167969 206.070313 400.167969 C 207.707031 400.167969 209.480469 399.867188 211.382813 399.265625 L 211.382813 387.496094 L 216.304688 387.496094 L 216.304688 402.121094 "/>
<path style=" stroke:none;fill-rule:nonzero;fill:rgb(0%,67.498779%,92.199707%);fill-opacity:1;" d="M 234.414063 366.964844 L 239.335938 366.964844 L 239.335938 389.765625 C 239.335938 393.394531 239.980469 396.039063 241.265625 397.6875 C 242.554688 399.339844 244.601563 400.167969 247.410156 400.167969 C 250.15625 400.167969 252.101563 399.390625 253.246094 397.835938 C 254.394531 396.28125 254.96875 393.648438 254.96875 389.9375 L 254.96875 366.964844 L 259.304688 366.964844 L 259.304688 389.863281 C 259.304688 393.023438 259.007813 395.445313 258.414063 397.140625 C 257.820313 398.832031 256.75 400.320313 255.203125 401.605469 C 253.265625 403.203125 250.601563 404 247.210938 404 C 242.820313 404 239.589844 402.84375 237.519531 400.53125 C 235.449219 398.222656 234.414063 394.617188 234.414063 389.71875 L 234.414063 366.964844 "/>
<path style=" stroke:none;fill-rule:nonzero;fill:rgb(0%,67.498779%,92.199707%);fill-opacity:1;" d="M 283.390625 383.980469 L 284.988281 383.980469 C 288.023438 383.980469 290.335938 383.339844 291.917969 382.050781 C 293.496094 380.765625 294.289063 378.886719 294.289063 376.410156 C 294.289063 372.667969 291.691406 370.796875 286.492188 370.796875 L 283.390625 370.796875 Z M 278.515625 403.097656 L 278.515625 366.964844 L 289.015625 366.964844 C 292.34375 366.964844 294.894531 367.730469 296.667969 369.257813 C 298.441406 370.789063 299.328125 373.011719 299.328125 375.921875 C 299.328125 378.21875 298.714844 380.261719 297.488281 382.050781 C 296.261719 383.84375 294.539063 385.21875 292.320313 386.179688 L 303.898438 403.097656 L 297.855469 403.097656 L 287.96875 387.8125 L 283.390625 387.8125 L 283.390625 403.097656 L 278.515625 403.097656 "/>
<path style=" stroke:none;fill-rule:nonzero;fill:rgb(0%,67.498779%,92.199707%);fill-opacity:1;" d="M 333.253906 400.167969 C 336.707031 400.167969 339.402344 398.828125 341.339844 396.148438 C 343.273438 393.472656 344.246094 389.75 344.246094 384.980469 C 344.246094 380.246094 343.273438 376.546875 341.339844 373.886719 C 339.402344 371.226563 336.707031 369.894531 333.253906 369.894531 C 329.796875 369.894531 327.101563 371.226563 325.167969 373.886719 C 323.230469 376.546875 322.261719 380.246094 322.261719 384.980469 C 322.261719 389.75 323.230469 393.472656 325.167969 396.148438 C 327.101563 398.828125 329.796875 400.167969 333.253906 400.167969 Z M 333.253906 404 C 328.332031 404 324.394531 402.277344 321.453125 398.835938 C 318.507813 395.394531 317.035156 390.792969 317.035156 385.03125 C 317.035156 379.269531 318.507813 374.664063 321.453125 371.226563 C 324.394531 367.78125 328.332031 366.058594 333.253906 366.058594 C 338.175781 366.058594 342.109375 367.78125 345.054688 371.226563 C 347.996094 374.664063 349.472656 379.269531 349.472656 385.03125 C 349.472656 390.792969 347.996094 395.394531 345.054688 398.835938 C 342.109375 402.277344 338.175781 404 333.253906 404 "/>
<path style=" stroke:none;fill-rule:nonzero;fill:rgb(0%,67.498779%,92.199707%);fill-opacity:1;" d="M 364.933594 402.414063 L 364.933594 397.335938 C 368.839844 399.222656 372.058594 400.167969 374.589844 400.167969 C 376.511719 400.167969 378.0625 399.632813 379.242188 398.566406 C 380.421875 397.5 381.011719 396.113281 381.011719 394.40625 C 381.011719 392.988281 380.625 391.785156 379.851563 390.792969 C 379.078125 389.800781 377.652344 388.691406 375.574219 387.472656 L 373.183594 386.03125 C 370.230469 384.273438 368.148438 382.617188 366.9375 381.0625 C 365.726563 379.507813 365.121094 377.707031 365.121094 375.65625 C 365.121094 372.855469 366.089844 370.558594 368.027344 368.757813 C 369.964844 366.960938 372.433594 366.058594 375.433594 366.058594 C 378.105469 366.058594 380.925781 366.523438 383.894531 367.453125 L 383.894531 372.140625 C 380.238281 370.640625 377.511719 369.894531 375.714844 369.894531 C 374.011719 369.894531 372.605469 370.367188 371.496094 371.308594 C 370.386719 372.253906 369.832031 373.441406 369.832031 374.875 C 369.832031 376.078125 370.238281 377.144531 371.050781 378.070313 C 371.863281 379 373.347656 380.105469 375.503906 381.390625 L 377.988281 382.855469 C 380.988281 384.632813 383.082031 386.308594 384.269531 387.886719 C 385.457031 389.464844 386.050781 391.363281 386.050781 393.574219 C 386.050781 396.71875 384.941406 399.238281 382.722656 401.144531 C 380.503906 403.046875 377.558594 404 373.886719 404 C 371.542969 404 368.558594 403.472656 364.933594 402.414063 "/>
<path style=" stroke:none;fill-rule:nonzero;fill:rgb(88.598633%,47.799683%,31.399536%);fill-opacity:1;" d="M 231.667969 18.65625 L 242.351563 0.152344 L 194.355469 0.152344 L 205.039063 18.65625 L 231.667969 18.65625 "/>
<path style=" stroke:none;fill-rule:nonzero;fill:rgb(88.598633%,47.799683%,31.399536%);fill-opacity:1;" d="M 231.667969 18.5 L 242.351563 -0.00390625 L 194.355469 -0.00390625 L 205.039063 18.5 L 231.667969 18.5 "/>
<path style=" stroke:none;fill-rule:nonzero;fill:rgb(0%,67.498779%,92.199707%);fill-opacity:1;" d="M 299.5 176.683594 L 286.222656 153.683594 L 316.441406 101.339844 L 343 101.339844 L 299.5 176.683594 "/>
<path style=" stroke:none;fill-rule:nonzero;fill:rgb(93.299866%,62.399292%,48.199463%);fill-opacity:1;" d="M 205.09375 64.691406 L 194.367188 83.171875 L 242.363281 83.277344 L 231.722656 64.75 L 205.09375 64.691406 "/>
<path style=" stroke:none;fill-rule:nonzero;fill:rgb(90.99884%,56.098938%,40.39917%);fill-opacity:1;" d="M 191.828125 41.605469 L 170.464844 41.585938 L 194.417969 83.175781 L 205.121094 64.683594 L 191.828125 41.605469 "/>
<path style=" stroke:none;fill-rule:nonzero;fill:rgb(88.999939%,47.799683%,30.999756%);fill-opacity:1;" d="M 205.121094 18.488281 L 194.417969 -0.00390625 L 170.464844 41.585938 L 191.828125 41.5625 L 205.121094 18.488281 "/>
<path style=" stroke:none;fill-rule:nonzero;fill:rgb(18.798828%,68.598938%,35.299683%);fill-opacity:1;" d="M 353.191406 87.753906 L 371.660156 77.015625 L 330.023438 53.144531 L 330.089844 74.511719 L 353.191406 87.753906 "/>
<path style=" stroke:none;fill-rule:nonzero;fill:rgb(86.299133%,89.399719%,82.699585%);fill-opacity:1;" d="M 353.210938 114.496094 L 371.757813 125.101563 L 371.558594 77.105469 L 353.101563 87.867188 L 353.210938 114.496094 "/>
<path style=" stroke:none;fill-rule:nonzero;fill:rgb(75.698853%,85.099792%,74.899292%);fill-opacity:1;" d="M 330.179688 127.90625 L 330.25 149.269531 L 371.734375 125.136719 L 353.199219 114.515625 L 330.179688 127.90625 "/>
<path style=" stroke:none;fill-rule:nonzero;fill:rgb(66.699219%,79.998779%,66.299438%);fill-opacity:1;" d="M 307.164063 114.609375 L 288.667969 125.308594 L 330.253906 149.273438 L 330.234375 127.90625 L 307.164063 114.609375 "/>
<path style=" stroke:none;fill-rule:nonzero;fill:rgb(55.699158%,75.698853%,58.399963%);fill-opacity:1;" d="M 307.136719 87.988281 L 288.613281 77.34375 L 288.710938 125.335938 L 307.191406 114.617188 L 307.136719 87.988281 "/>
<path style=" stroke:none;fill-rule:nonzero;fill:rgb(45.899963%,72.499084%,48.599243%);fill-opacity:1;" d="M 330.164063 74.539063 L 330.078125 53.175781 L 288.613281 77.34375 L 307.15625 87.949219 L 330.164063 74.539063 "/>
<path style=" stroke:none;fill-rule:nonzero;fill:rgb(41.999817%,76.899719%,92.89856%);fill-opacity:1;" d="M 286.222656 48.992188 L 299.5 25.992188 L 212.5 25.992188 L 225.777344 48.992188 L 286.222656 48.992188 "/>
<path style=" stroke:none;fill-rule:nonzero;fill:rgb(10.198975%,72.499084%,90.59906%);fill-opacity:1;" d="M 316.441406 101.339844 L 343 101.339844 L 299.445313 25.992188 L 286.222656 48.992188 L 316.441406 101.339844 "/>
<path style=" stroke:none;fill-rule:nonzero;fill:rgb(84.698486%,90.59906%,93.699646%);fill-opacity:1;" d="M 286.222656 153.683594 L 225.777344 153.683594 L 212.5 176.683594 L 299.5 176.683594 L 286.222656 153.683594 "/>
<path style=" stroke:none;fill-rule:nonzero;fill:rgb(72.198486%,85.099792%,92.498779%);fill-opacity:1;" d="M 225.777344 153.683594 L 212.5 176.683594 L 169 101.339844 L 195.558594 101.339844 L 225.777344 153.683594 "/>
<path style=" stroke:none;fill-rule:nonzero;fill:rgb(57.998657%,81.199646%,94.099426%);fill-opacity:1;" d="M 195.558594 101.339844 L 225.777344 48.992188 L 212.5 25.992188 L 169 101.339844 L 195.558594 101.339844 "/>
<path style=" stroke:none;fill-rule:nonzero;fill:rgb(95.298767%,76.899719%,66.699219%);fill-opacity:1;" d="M 244.980469 41.6875 L 266.347656 41.664063 L 242.304688 0.128906 L 231.644531 18.640625 L 244.980469 41.6875 "/>
<path style=" stroke:none;fill-rule:nonzero;fill:rgb(93.299866%,69.398499%,56.898499%);fill-opacity:1;" d="M 231.671875 64.777344 L 242.359375 83.277344 L 266.347656 41.707031 L 244.984375 41.710938 L 231.671875 64.777344 "/>
</g>
</svg>
