<?xml version="1.0" encoding="UTF-8"?>
<svg xmlns="http://www.w3.org/2000/svg" xmlns:xlink="http://www.w3.org/1999/xlink" width="364pt" height="349pt" viewBox="0 0 364 349" version="1.1">
<g id="surface1">
<path style=" stroke:none;fill-rule:evenodd;fill:rgb(100%,100%,100%);fill-opacity:1;" d="M 0.0585938 0.84375 L 363.089844 0.84375 L 363.089844 348.21875 L 0.0585938 348.21875 L 0.0585938 0.84375 "/>
<path style=" stroke:none;fill-rule:nonzero;fill:rgb(0%,43.920898%,23.529053%);fill-opacity:1;" d="M 93.855469 18.394531 L 93.855469 155.257813 C 93.707031 164.992188 98.722656 170.585938 108.910156 172.039063 L 244.023438 172.039063 C 252.710938 172.039063 260.585938 168.503906 266.304688 162.796875 C 271.957031 157.15625 275.449219 149.363281 275.453125 140.769531 L 275.34375 140.769531 L 275.34375 140.742188 L 275.453125 140.742188 C 275.453125 132.210938 271.917969 124.410156 266.210938 118.703125 C 260.503906 112.996094 252.707031 109.464844 244.183594 109.464844 L 244.183594 109.570313 L 244.15625 109.570313 L 244.15625 109.464844 C 235.621094 109.464844 227.820313 112.996094 222.113281 118.707031 C 216.410156 124.414063 212.878906 132.207031 212.875 140.734375 L 212.984375 140.734375 L 212.984375 140.753906 C 212.707031 149.527344 215.621094 154.195313 220.65625 160.347656 L 201.664063 160.386719 L 164.566406 160.386719 C 158.609375 148.632813 157.390625 134.855469 159.542969 121.046875 C 162.085938 104.6875 171.425781 90.527344 182.679688 79.273438 C 198.347656 63.605469 220.078125 53.90625 244.15625 53.90625 L 244.15625 53.796875 L 244.183594 53.796875 L 244.183594 53.90625 C 268.253906 53.910156 289.980469 63.601563 305.644531 79.269531 C 321.308594 94.933594 331.007813 116.667969 331.011719 140.742188 L 331.117188 140.742188 L 331.117188 140.769531 L 331.011719 140.769531 C 331.003906 164.773438 321.273438 186.507813 305.523438 202.230469 C 289.828125 217.898438 268.097656 227.597656 244.023438 227.597656 L 244.023438 227.707031 L 108.890625 227.707031 L 108.890625 227.597656 C 88.871094 227.589844 70.765625 219.492188 57.71875 206.449219 L 57.773438 206.394531 C 44.6875 193.285156 36.566406 175.1875 36.558594 155.257813 L 36.449219 155.257813 L 36.449219 18.394531 L 93.855469 18.394531 "/>
<path style=" stroke:none;fill-rule:evenodd;fill:rgb(100%,100%,100%);fill-opacity:1;" d="M 146.460938 174.382813 L 245.113281 174.382813 C 260.34375 173.953125 267.492188 169.8125 272.472656 160.914063 C 269.078125 170.878906 259.753906 176.925781 245.226563 177.480469 L 115.613281 177.480469 C 101.085938 176.925781 91.761719 170.878906 88.367188 160.914063 C 93.34375 169.8125 100.492188 173.953125 115.726563 174.382813 Z M 146.460938 179.640625 L 114.261719 179.640625 L 114.261719 179.675781 C 100.296875 179.675781 90.78125 175.855469 83.148438 163.980469 C 88.46875 177.246094 100.078125 182.472656 114.261719 182.855469 L 246.578125 182.855469 C 260.761719 182.472656 272.367188 177.246094 277.691406 163.980469 C 270.058594 175.855469 260.546875 179.675781 246.578125 179.675781 L 246.578125 179.640625 Z M 122.242188 225.089844 L 246.089844 225.089844 L 246.089844 225.015625 L 250.371094 224.957031 L 252.164063 224.886719 L 253.945313 224.773438 L 255.71875 224.617188 L 257.472656 224.414063 L 259.21875 224.171875 L 260.949219 223.886719 L 262.660156 223.554688 L 264.359375 223.1875 L 266.042969 222.777344 L 267.710938 222.324219 L 269.359375 221.835938 L 270.988281 221.304688 L 272.605469 220.738281 L 274.199219 220.128906 L 275.777344 219.488281 L 277.332031 218.808594 L 278.867188 218.09375 L 280.382813 217.335938 L 281.878906 216.554688 L 283.351563 215.730469 L 284.800781 214.871094 L 286.226563 213.980469 L 287.632813 213.0625 L 289.007813 212.105469 L 290.363281 211.117188 L 291.691406 210.097656 L 292.996094 209.050781 L 294.269531 207.96875 L 295.523438 206.859375 L 296.289063 206.148438 L 299.050781 203.304688 L 300.191406 202.074219 L 301.304688 200.816406 L 302.386719 199.535156 L 303.441406 198.226563 L 304.460938 196.890625 L 305.453125 195.53125 L 306.410156 194.152344 L 307.335938 192.742188 L 308.222656 191.3125 L 309.082031 189.855469 L 309.910156 188.382813 L 310.699219 186.886719 L 311.449219 185.371094 L 312.167969 183.832031 L 312.808594 182.378906 C 297.875 207.316406 278.117188 221.480469 248.644531 221.878906 L 242.992188 221.960938 L 242.992188 221.992188 L 117.84375 221.992188 L 117.84375 221.960938 L 112.191406 221.878906 C 82.722656 221.480469 62.964844 207.316406 48.03125 182.378906 L 48.671875 183.832031 L 49.390625 185.371094 L 50.140625 186.886719 L 50.929688 188.382813 L 51.757813 189.855469 L 52.613281 191.3125 L 53.507813 192.742188 L 54.429688 194.152344 L 55.386719 195.53125 L 56.378906 196.890625 L 57.398438 198.226563 L 58.449219 199.535156 L 59.535156 200.816406 L 60.648438 202.074219 L 61.789063 203.304688 L 64.550781 206.148438 L 65.316406 206.859375 L 66.566406 207.96875 L 67.84375 209.050781 L 69.148438 210.097656 L 70.476563 211.117188 L 71.832031 212.105469 L 73.207031 213.0625 L 74.613281 213.980469 L 76.039063 214.871094 L 77.488281 215.730469 L 78.960938 216.554688 L 80.457031 217.335938 L 81.972656 218.09375 L 83.507813 218.808594 L 85.0625 219.488281 L 86.640625 220.128906 L 88.234375 220.738281 L 89.847656 221.304688 L 91.480469 221.835938 L 93.128906 222.324219 L 94.796875 222.777344 L 96.480469 223.1875 L 98.175781 223.554688 L 99.890625 223.886719 L 101.621094 224.171875 L 103.363281 224.414063 L 105.121094 224.617188 L 106.890625 224.773438 L 108.671875 224.886719 L 110.46875 224.957031 L 114.75 225.015625 L 114.75 225.089844 Z M 123.667969 219.730469 L 244.484375 219.730469 L 244.484375 219.703125 L 250.003906 219.703125 C 285.699219 217.664063 297.613281 199.445313 309.605469 180.796875 C 296.820313 199.785156 280.171875 216 250.003906 216.488281 L 110.835938 216.488281 C 80.667969 216 64.019531 199.785156 51.234375 180.796875 C 63.226563 199.445313 75.140625 217.664063 110.835938 219.703125 L 116.355469 219.703125 L 116.355469 219.730469 Z M 146.460938 211.226563 L 111.328125 211.226563 C 81.207031 210.046875 66.546875 195.601563 54.492188 178.859375 C 65.445313 195.570313 77.085938 212.144531 111.328125 214.441406 L 249.511719 214.441406 C 283.753906 212.144531 295.394531 195.570313 306.347656 178.859375 C 294.292969 195.601563 279.632813 210.046875 249.511719 211.226563 Z M 146.460938 205.960938 L 112.308594 205.960938 C 87.027344 205.773438 70.417969 193.480469 58.246094 176.601563 C 67.96875 190.902344 78.449219 206.988281 111.816406 209.175781 L 249.023438 209.175781 C 282.390625 206.988281 292.867188 190.902344 302.59375 176.601563 C 290.421875 193.480469 273.8125 205.773438 248.53125 205.960938 Z M 146.460938 200.695313 L 112.304688 200.695313 C 80.445313 198.554688 72.207031 186.347656 62.445313 174.921875 C 71.417969 188.46875 80.59375 201.503906 112.304688 203.910156 L 248.53125 203.910156 C 280.246094 201.503906 289.421875 188.46875 298.394531 174.921875 C 288.632813 186.347656 280.394531 198.554688 248.53125 200.695313 Z M 146.460938 195.433594 L 112.792969 195.433594 C 89.28125 195.433594 76.992188 185.335938 66.792969 172.539063 C 75.898438 186.175781 86.988281 197.65625 112.792969 198.648438 L 248.046875 198.648438 C 273.851563 197.65625 284.941406 186.175781 294.046875 172.539063 C 283.847656 185.335938 271.554688 195.433594 248.046875 195.433594 Z M 146.460938 190.167969 L 111.65625 190.167969 C 91.375 188.910156 80.777344 180.867188 71.664063 170.199219 C 78.847656 181.574219 90.84375 192.367188 113.285156 193.386719 L 247.554688 193.386719 C 269.996094 192.367188 281.992188 181.574219 289.175781 170.199219 C 280.0625 180.867188 269.464844 188.910156 249.183594 190.167969 Z M 146.460938 184.902344 L 116.132813 184.902344 C 109.976563 184.902344 104.550781 184.4375 98.628906 182.382813 C 90.097656 179.425781 81.414063 174.050781 76.589844 166.988281 C 81.035156 174.9375 88.511719 182.742188 101.808594 186.277344 C 106.246094 187.457031 110.886719 188.117188 115.476563 188.117188 L 245.363281 188.117188 C 249.953125 188.117188 254.59375 187.457031 259.03125 186.277344 C 272.324219 182.742188 279.804688 174.9375 284.246094 166.988281 C 279.425781 174.050781 270.742188 179.425781 262.210938 182.382813 C 256.289063 184.4375 250.863281 184.902344 244.707031 184.902344 L 146.460938 184.902344 "/>
<path style=" stroke:none;fill-rule:evenodd;fill:rgb(100%,94.898987%,0%);fill-opacity:1;" d="M 243.941406 115.597656 C 257.9375 115.597656 269.285156 126.945313 269.285156 140.941406 C 269.285156 154.9375 257.9375 166.285156 243.941406 166.285156 C 229.945313 166.285156 218.597656 154.9375 218.597656 140.941406 C 218.597656 126.945313 229.945313 115.597656 243.941406 115.597656 "/>
<path style=" stroke:none;fill-rule:evenodd;fill:rgb(100%,100%,100%);fill-opacity:1;" d="M 243.941406 98.296875 C 262.515625 98.296875 278 112.167969 281.394531 130.449219 C 277.15625 114.183594 261.992188 102.101563 243.941406 102.101563 C 225.890625 102.101563 210.726563 114.183594 206.492188 130.449219 C 209.882813 112.167969 225.367188 98.296875 243.941406 98.296875 Z M 243.941406 93.046875 C 264.210938 93.046875 281.21875 107.394531 285.769531 126.574219 C 280.40625 109.46875 263.703125 96.921875 243.941406 96.921875 C 224.179688 96.921875 207.476563 109.46875 202.113281 126.574219 C 206.664063 107.394531 223.671875 93.046875 243.941406 93.046875 Z M 243.941406 87.796875 C 265.90625 87.796875 284.4375 102.617188 290.144531 122.699219 C 283.652344 104.753906 265.414063 91.742188 243.941406 91.742188 C 222.46875 91.742188 204.226563 104.753906 197.738281 122.699219 C 203.445313 102.617188 221.976563 87.796875 243.941406 87.796875 Z M 243.941406 82.542969 C 267.597656 82.542969 287.660156 97.84375 294.519531 118.824219 C 286.90625 100.039063 267.125 86.558594 243.941406 86.558594 C 220.757813 86.558594 200.980469 100.039063 193.363281 118.824219 C 200.226563 97.84375 220.285156 82.542969 243.941406 82.542969 Z M 243.941406 77.292969 C 269.292969 77.292969 290.878906 93.070313 298.894531 114.949219 C 290.152344 95.320313 268.835938 81.378906 243.941406 81.378906 C 219.046875 81.378906 197.730469 95.320313 188.988281 114.949219 C 197.007813 93.070313 218.589844 77.292969 243.941406 77.292969 Z M 243.941406 72.039063 C 270.984375 72.039063 294.097656 88.292969 303.273438 111.074219 C 293.402344 90.605469 270.546875 76.199219 243.941406 76.199219 C 217.335938 76.199219 194.480469 90.605469 184.613281 111.074219 C 193.789063 88.292969 216.898438 72.039063 243.941406 72.039063 Z M 243.941406 66.789063 C 272.679688 66.789063 297.316406 83.519531 307.648438 107.199219 C 296.652344 85.890625 272.257813 71.019531 243.941406 71.019531 C 215.625 71.019531 191.230469 85.890625 180.234375 107.199219 C 190.566406 83.519531 215.203125 66.789063 243.941406 66.789063 Z M 243.941406 61.535156 C 274.371094 61.535156 300.535156 78.742188 312.023438 103.324219 C 299.902344 81.175781 273.96875 65.835938 243.941406 65.835938 C 213.914063 65.835938 187.984375 81.175781 175.859375 103.324219 C 187.347656 78.742188 213.507813 61.535156 243.941406 61.535156 Z M 243.941406 103.550781 C 260.820313 103.550781 274.78125 116.945313 277.015625 134.328125 C 273.90625 118.902344 260.28125 107.28125 243.941406 107.28125 C 227.601563 107.28125 213.976563 118.902344 210.867188 134.328125 C 213.101563 116.945313 227.058594 103.550781 243.941406 103.550781 Z M 243.941406 56.285156 C 276.066406 56.285156 303.753906 73.96875 316.402344 99.449219 C 303.148438 76.460938 275.679688 60.65625 243.941406 60.65625 C 212.203125 60.65625 184.734375 76.460938 171.484375 99.449219 C 184.128906 73.96875 211.816406 56.285156 243.941406 56.285156 "/>
<path style=" stroke:none;fill-rule:evenodd;fill:rgb(13.699341%,12.199402%,12.5%);fill-opacity:1;" d="M 100.640625 252.996094 C 100.433594 250.890625 98.398438 247.949219 93.457031 247.945313 C 89.199219 247.941406 85.894531 250.484375 85.945313 255.472656 C 85.996094 260.398438 89.175781 262.964844 93.566406 262.964844 C 97.707031 262.96875 100.03125 260.804688 100.6875 257.707031 L 97.238281 257.703125 C 96.84375 259.453125 95.519531 260.386719 93.609375 260.382813 C 90.6875 260.382813 89.492188 258.078125 89.464844 255.515625 C 89.421875 251.480469 91.851563 250.527344 93.507813 250.527344 C 96.355469 250.53125 96.902344 252.140625 97.1875 252.996094 Z M 106.195313 259.695313 L 102.746094 259.695313 L 102.777344 262.59375 L 106.226563 262.59375 Z M 112.589844 259.660156 L 118.6875 259.664063 L 119.773438 262.605469 L 123.523438 262.605469 L 117.554688 248.335938 L 113.574219 248.335938 L 107.839844 262.597656 L 111.472656 262.601563 Z M 115.542969 251.554688 L 115.589844 251.554688 L 117.695313 257.199219 L 113.484375 257.195313 Z M 128.566406 259.710938 L 125.117188 259.707031 L 125.144531 262.605469 L 128.597656 262.609375 Z M 136.652344 262.613281 L 143.804688 262.617188 C 149.257813 262.621094 150.613281 258.210938 150.578125 255.152344 C 150.550781 252.449219 149.359375 248.355469 143.792969 248.351563 L 136.503906 248.347656 Z M 139.910156 250.816406 L 143.222656 250.816406 C 144.695313 250.816406 147.019531 251.15625 147.0625 255.367188 C 147.089844 257.710938 146.171875 260.15625 143.363281 260.152344 L 140.007813 260.152344 Z M 164.941406 248.363281 L 152.796875 248.355469 L 152.949219 262.621094 L 165.484375 262.628906 L 165.457031 260.105469 L 156.300781 260.101563 L 156.261719 256.40625 L 164.3125 256.410156 L 164.285156 253.886719 L 156.238281 253.882813 L 156.203125 250.882813 L 164.96875 250.886719 Z M 173.152344 258.242188 C 173.171875 260.011719 174.238281 263.011719 180.261719 263.015625 C 181.710938 263.015625 186.769531 262.640625 186.722656 258.351563 C 186.695313 255.789063 184.617188 254.992188 182.359375 254.511719 L 178.324219 253.65625 C 177.632813 253.515625 176.570313 253.277344 176.5625 252.164063 C 176.546875 250.875 178.105469 250.457031 179.417969 250.460938 C 182.429688 250.460938 182.722656 251.96875 182.820313 252.605469 L 186.132813 252.609375 C 186.089844 250.859375 184.703125 247.996094 179.644531 247.996094 C 174.285156 247.992188 173.328125 250.792969 173.34375 252.382813 C 173.378906 255.523438 175.957031 256.039063 178.632813 256.578125 L 180.40625 256.9375 C 182.15625 257.292969 183.402344 257.59375 183.414063 258.707031 C 183.429688 260.21875 181.617188 260.554688 179.984375 260.554688 C 176.972656 260.550781 176.496094 259.039063 176.464844 258.246094 Z M 201.066406 248.382813 L 188.925781 248.378906 L 189.074219 262.644531 L 201.609375 262.652344 L 201.582031 260.128906 L 192.429688 260.121094 L 192.390625 256.425781 L 200.441406 256.429688 L 200.414063 253.90625 L 192.363281 253.90625 L 192.332031 250.902344 L 201.09375 250.90625 Z M 211.796875 257.371094 L 215.636719 257.375 C 214.953125 260.253906 212.425781 260.511719 211.667969 260.511719 C 209.320313 260.507813 206.851563 259.496094 206.808594 255.601563 C 206.769531 251.945313 209.03125 250.476563 211.492188 250.476563 C 213.929688 250.476563 215.121094 252.265625 215.128906 252.824219 L 218.578125 252.824219 C 218.371094 250.859375 216.34375 248.015625 211.28125 248.011719 C 205.71875 247.988281 203.25 251.664063 203.289063 255.558594 C 203.34375 260.566406 206.980469 263.03125 210.960938 263.035156 C 213.972656 263.035156 215.222656 261.742188 216.089844 260.871094 L 216.453125 262.660156 L 218.753906 262.660156 L 218.671875 254.972656 L 211.769531 254.964844 Z M 234.75 248.402344 L 231.230469 248.402344 L 231.328125 257.800781 C 231.347656 259.53125 230.394531 260.519531 228.023438 260.519531 C 226.414063 260.519531 225.070313 259.644531 225.050781 257.65625 L 224.953125 248.398438 L 221.433594 248.394531 L 221.535156 257.855469 C 221.59375 259.285156 221.953125 260.4375 222.855469 261.3125 C 224.34375 262.722656 226.601563 263.042969 228.121094 263.042969 C 232.28125 263.046875 234.886719 261.4375 234.847656 257.683594 Z M 237.96875 262.671875 L 241.351563 262.671875 L 241.292969 257.089844 L 244.859375 257.09375 C 247.410156 257.09375 247.558594 257.847656 247.578125 259.796875 C 247.59375 261.265625 247.738281 262 247.976563 262.675781 L 251.792969 262.679688 L 251.789063 262.300781 C 251.050781 262.0625 251.046875 261.546875 251.023438 259.460938 C 250.996094 256.796875 250.253906 256.359375 248.890625 255.84375 C 250.519531 255.367188 251.425781 254.015625 251.410156 252.445313 C 251.394531 251.214844 250.5625 248.410156 246.167969 248.410156 L 237.820313 248.40625 Z M 241.269531 254.6875 L 241.226563 250.871094 L 245.527344 250.871094 C 247.550781 250.875 247.953125 251.988281 247.964844 252.742188 C 247.976563 254.152344 247.109375 254.691406 245.316406 254.6875 Z M 252.996094 255.546875 C 253.066406 262.242188 258.824219 263.058594 261.007813 263.0625 C 263.195313 263.0625 268.933594 262.25 268.863281 255.554688 C 268.792969 248.859375 263.035156 248.039063 260.851563 248.039063 C 258.664063 248.039063 252.925781 248.851563 252.996094 255.546875 Z M 256.445313 255.546875 C 256.402344 251.554688 259.015625 250.566406 260.878906 250.566406 C 262.738281 250.566406 265.371094 251.558594 265.414063 255.554688 C 265.457031 259.546875 262.84375 260.539063 260.980469 260.539063 C 259.117188 260.539063 256.488281 259.542969 256.445313 255.546875 Z M 270.484375 258.296875 C 270.503906 260.066406 271.570313 263.066406 277.59375 263.070313 C 279.042969 263.074219 284.097656 262.695313 284.054688 258.40625 C 284.027344 255.84375 281.949219 255.046875 279.691406 254.570313 L 275.65625 253.710938 C 274.964844 253.574219 273.90625 253.332031 273.894531 252.21875 C 273.878906 250.929688 275.4375 250.511719 276.75 250.515625 C 279.761719 250.515625 280.054688 252.027344 280.152344 252.660156 L 283.464844 252.664063 C 283.421875 250.914063 282.035156 248.050781 276.976563 248.050781 C 271.617188 248.046875 270.660156 250.847656 270.675781 252.4375 C 270.707031 255.578125 273.289063 256.09375 275.964844 256.632813 L 277.738281 256.992188 C 279.488281 257.351563 280.734375 257.648438 280.746094 258.761719 C 280.761719 260.273438 278.949219 260.609375 277.316406 260.605469 C 274.304688 260.605469 273.828125 259.09375 273.796875 258.300781 L 270.484375 258.296875 "/>
<path style=" stroke:none;fill-rule:evenodd;fill:rgb(13.699341%,12.199402%,12.5%);fill-opacity:1;" d="M 66.59375 320.328125 C 66.59375 326.859375 61.636719 328.527344 59.382813 328.527344 C 54.570313 328.527344 53.519531 325.914063 53.519531 321.851563 C 53.519531 319.09375 54.417969 316.121094 57.203125 314.886719 C 60.359375 313.4375 63.664063 312.203125 66.59375 310.535156 Z M 346.453125 332.300781 L 346.457031 277.890625 L 340.519531 277.890625 L 340.519531 332.300781 Z M 328.3125 320.332031 C 328.3125 326.859375 323.355469 328.527344 321.097656 328.527344 C 316.289063 328.527344 315.234375 325.917969 315.234375 321.855469 C 315.234375 319.097656 316.136719 316.121094 318.917969 314.890625 C 322.074219 313.4375 325.382813 312.207031 328.3125 310.535156 Z M 338.085938 328.09375 C 337.257813 328.164063 336.355469 328.238281 335.527344 328.023438 C 334.324219 327.441406 334.476563 325.992188 334.476563 324.972656 L 334.476563 301.832031 C 334.476563 300.886719 335.527344 290.875 323.128906 290.875 C 314.710938 290.875 310.425781 294.503906 310.726563 302.84375 L 316.0625 302.84375 C 315.988281 298.128906 316.738281 295.738281 322.152344 295.738281 C 326.960938 295.738281 328.765625 297.476563 328.765625 302.046875 C 328.765625 304.152344 328.914063 305.746094 327.636719 306.691406 C 326.886719 307.273438 318.464844 310.320313 315.085938 311.769531 C 309.296875 314.234375 309.074219 320.039063 309.074219 321.566406 C 309.074219 323.804688 309.296875 325.777344 309.847656 327.441406 L 306.039063 327.441406 C 302.730469 327.441406 303.257813 325.699219 303.257813 324.320313 L 303.261719 296.824219 L 310.171875 296.824219 L 310.171875 291.964844 L 303.183594 291.964844 L 303.183594 281.007813 L 297.320313 281.007813 L 297.320313 291.964844 L 291.535156 291.964844 L 291.535156 296.824219 L 297.320313 296.824219 L 297.320313 325.699219 C 297.320313 331.792969 299.953125 332.375 303.484375 332.300781 L 310.023438 332.300781 L 310.023438 327.933594 C 311.363281 331.40625 314.285156 333.390625 319.820313 333.390625 C 323.804688 333.390625 327.636719 330.414063 329.0625 326.859375 L 329.214844 326.859375 C 329.816406 332.375 331.695313 332.808594 336.730469 332.59375 C 337.183594 332.445313 337.632813 332.375 338.085938 332.300781 Z M 269.546875 291.964844 L 263.757813 291.964844 L 263.757813 332.300781 L 269.695313 332.300781 L 269.695313 305.3125 C 269.695313 302.410156 269.996094 300.089844 272.402344 297.984375 C 273.980469 296.53125 276.085938 295.734375 278.265625 295.734375 C 283.074219 295.734375 284.503906 298.566406 284.503906 302.773438 L 284.503906 332.300781 L 290.4375 332.300781 L 290.441406 301.179688 C 290.441406 294.066406 286.382813 290.875 280.144531 290.875 C 275.632813 290.875 272.554688 292.90625 269.546875 296.390625 Z M 239.304688 307.925781 C 239.53125 303.136719 239.679688 295.734375 246.59375 295.734375 C 253.507813 295.734375 253.210938 303.207031 253.433594 307.925781 Z M 253.734375 318.878906 C 254.109375 323.449219 252.53125 328.527344 246.820313 328.527344 C 238.476563 328.527344 239.453125 318.082031 239.304688 312.640625 L 259.597656 312.640625 C 259.296875 303.207031 260.046875 290.875 246.519531 290.875 C 235.472656 290.875 233.140625 303.570313 233.140625 312.058594 C 233.140625 328.3125 238.777344 333.390625 246.667969 333.390625 C 255.464844 333.390625 259.671875 326.785156 259.296875 318.878906 Z M 223.253906 316.484375 C 223.253906 321.054688 221.527344 328.527344 215.363281 328.527344 C 207.246094 328.527344 206.945313 320.621094 206.945313 311.914063 C 206.945313 299.507813 210.175781 295.734375 215.136719 295.734375 C 223.105469 295.734375 223.253906 305.964844 223.253906 311.480469 Z M 223.253906 296.097656 L 223.105469 296.097656 C 220.324219 292.613281 217.769531 290.875 213.484375 290.875 C 204.539063 290.875 200.480469 300.234375 200.933594 312.058594 C 201.082031 315.613281 200.03125 333.390625 213.183594 333.390625 C 218.21875 333.390625 220.773438 331.792969 223.328125 327.003906 L 223.480469 327.003906 L 223.480469 332.300781 L 229.191406 332.300781 L 229.191406 277.886719 L 223.253906 277.886719 Z M 196.996094 285.140625 L 196.996094 277.886719 L 191.058594 277.886719 L 191.058594 285.140625 Z M 196.996094 332.300781 L 196.996094 291.960938 L 191.058594 291.960938 L 191.058594 332.300781 Z M 174.945313 295.734375 C 180.585938 295.734375 181.785156 300.234375 181.863281 304.65625 L 187.421875 304.65625 C 187.496094 297.1875 183.441406 290.875 175.023438 290.875 C 162.246094 290.875 160.59375 302.773438 160.589844 312.640625 C 160.589844 323.085938 162.394531 333.390625 175.171875 333.390625 C 184.492188 333.390625 187.496094 325.988281 187.722656 318.226563 L 182.085938 318.226563 C 181.785156 323.160156 181.1875 328.527344 174.722656 328.527344 C 167.132813 328.527344 166.753906 319.167969 166.753906 313.871094 C 166.753906 308.140625 166.304688 295.734375 174.945313 295.734375 Z M 146.585938 295.734375 C 152.222656 295.734375 153.421875 300.234375 153.496094 304.65625 L 159.058594 304.65625 C 159.136719 297.1875 155.078125 290.875 146.660156 290.875 C 133.882813 290.875 132.226563 302.773438 132.226563 312.640625 C 132.226563 323.085938 134.03125 333.386719 146.808594 333.386719 C 156.128906 333.390625 159.132813 325.988281 159.359375 318.226563 L 153.722656 318.226563 C 153.421875 323.160156 152.820313 328.527344 146.359375 328.527344 C 138.765625 328.527344 138.390625 319.167969 138.390625 313.871094 C 138.390625 308.140625 137.941406 295.734375 146.585938 295.734375 Z M 92.441406 303.933594 C 92.589844 319.023438 94.542969 333.605469 111.003906 333.605469 C 127.464844 333.605469 129.492188 319.023438 129.566406 303.933594 C 129.644531 291.453125 127.613281 276.796875 111.15625 276.796875 C 94.394531 276.796875 92.441406 291.453125 92.441406 303.933594 Z M 123.105469 304.078125 C 123.027344 319.820313 121.378906 328.164063 111.003906 328.164063 C 100.632813 328.164063 98.980469 319.820313 98.90625 304.078125 C 98.828125 291.960938 101.234375 282.238281 110.855469 282.238281 C 120.773438 282.238281 123.183594 291.960938 123.105469 304.078125 Z M 47.957031 326.859375 L 29.78125 326.855469 L 29.78125 277.886719 L 23.542969 277.886719 L 23.542969 332.300781 L 52.273438 332.300781 C 53.777344 333.011719 55.691406 333.386719 58.101563 333.386719 C 62.085938 333.386719 65.917969 330.414063 67.347656 326.859375 L 67.5 326.859375 C 68.101563 332.371094 69.976563 332.808594 75.015625 332.589844 C 75.464844 332.445313 75.917969 332.371094 76.367188 332.300781 L 76.367188 328.089844 C 75.539063 328.164063 74.640625 328.238281 73.8125 328.019531 C 72.609375 327.4375 72.757813 325.988281 72.757813 324.972656 L 72.757813 301.828125 C 72.757813 300.886719 73.8125 290.871094 61.410156 290.871094 C 52.992188 290.871094 48.710938 294.5 49.011719 302.84375 L 54.347656 302.84375 C 54.269531 298.128906 55.023438 295.734375 60.433594 295.734375 C 65.242188 295.734375 67.046875 297.472656 67.046875 302.046875 C 67.046875 304.148438 67.199219 305.746094 65.921875 306.6875 C 65.167969 307.269531 56.75 310.316406 53.367188 311.765625 C 47.582031 314.234375 47.355469 320.039063 47.355469 321.5625 C 47.355469 323.542969 47.535156 325.324219 47.957031 326.859375 "/>
</g>
</svg>
