<?xml version="1.0" encoding="UTF-8"?>
<svg xmlns="http://www.w3.org/2000/svg" xmlns:xlink="http://www.w3.org/1999/xlink" width="658pt" height="331pt" viewBox="0 0 658 331" version="1.1">
<g id="surface1">
<path style=" stroke:none;fill-rule:evenodd;fill:rgb(6.272888%,16.479492%,51.367188%);fill-opacity:1;" d="M 87.09375 303.363281 C 112.867188 263.199219 145.523438 229.488281 211.347656 226.875 C 213.699219 204.1875 212.839844 181.503906 207.289063 158.816406 C 216.03125 148.410156 224.773438 138.003906 233.511719 127.597656 C 223.003906 131.34375 212.492188 135.089844 201.980469 138.835938 C 199.535156 133.65625 196.828125 128.609375 193.550781 123.847656 C 196.675781 113.546875 199.953125 103.554688 203.074219 93.253906 C 196.308594 98.5625 189.390625 103.554688 182.621094 108.863281 C 171.171875 98.019531 159.945313 91.722656 148.90625 89.195313 C 146.304688 81.078125 144.171875 72.960938 141.570313 64.84375 C 139.699219 71.921875 137.355469 78.996094 135.484375 86.074219 C 114.035156 82.027344 94.808594 87.851563 77.101563 100.433594 C 74.605469 94.292969 72.105469 88.15625 69.609375 82.015625 C 88.253906 62.226563 67.882813 47.484375 75.605469 43.273438 C 74.539063 40.027344 71.320313 39.664063 67.34375 40.15625 C 59.132813 29.398438 108.914063 28.617188 84.335938 1.335938 C 80.90625 7.050781 76.230469 10.066406 70.304688 10.378906 C 70.261719 3.503906 67.660156 1.378906 64.691406 -0.0664063 C 63.644531 3.082031 59.546875 6.207031 54.371094 5.050781 C 37.019531 1.171875 6.5625 2.824219 21.816406 34.699219 C 19.894531 36.519531 17.972656 38.335938 16.042969 40.15625 C 13.761719 38.753906 11.476563 37.871094 9.1875 38.128906 C 10.488281 39.742188 11.164063 41.976563 11.214844 44.832031 C 0.046875 65.035156 5.375 75.15625 16.667969 81.628906 C 13.582031 84.472656 14.933594 86.578125 19.324219 88.175781 C 17.320313 94.257813 20.179688 98.050781 25.246094 100.804688 C 25.558594 103.558594 25.871094 106.3125 26.183594 109.066406 C 22.753906 114.421875 23.894531 118.109375 29.613281 120.136719 C 31.273438 127.414063 36.679688 130.53125 45.828125 129.492188 C 46.347656 134.011719 46.867188 138.535156 47.386719 143.054688 C 30.332031 185.421875 31.820313 256.730469 72.414063 295.246094 C 93.46875 260.148438 119.84375 242.617188 149.21875 234.992188 C 119.964844 248.960938 96.367188 269.722656 79.601563 298.679688 C 82.097656 300.242188 84.59375 301.800781 87.09375 303.363281 Z M 87.09375 303.363281 "/>
<path style=" stroke:none;fill-rule:evenodd;fill:rgb(100%,100%,100%);fill-opacity:1;" d="M 135.628906 126.683594 C 141.140625 125.59375 146.648438 126.007813 152.15625 128.246094 C 148.726563 110.730469 145.296875 93.21875 141.867188 75.703125 C 139.789063 92.695313 137.703125 109.691406 135.628906 126.683594 Z M 135.628906 126.683594 "/>
<path style=" stroke:none;fill-rule:evenodd;fill:rgb(100%,100%,100%);fill-opacity:1;" d="M 113.804688 142.742188 C 105.746094 129.386719 97.691406 116.03125 89.636719 102.675781 C 100.550781 112.082031 111.464844 121.488281 122.378906 130.894531 C 118.4375 133.582031 115.246094 137.144531 113.804688 142.742188 Z M 113.804688 142.742188 "/>
<path style=" stroke:none;fill-rule:evenodd;fill:rgb(100%,100%,100%);fill-opacity:1;" d="M 165.871094 134.324219 C 176.371094 123.722656 186.871094 113.121094 197.371094 102.519531 C 190.976563 116.449219 184.585938 130.375 178.191406 144.304688 C 174.710938 140.351563 170.605469 137.027344 165.871094 134.324219 Z M 165.871094 134.324219 "/>
<path style=" stroke:none;fill-rule:evenodd;fill:rgb(100%,100%,100%);fill-opacity:1;" d="M 186.300781 150.695313 C 189.261719 155.425781 191.394531 160.152344 192.691406 164.882813 C 203.035156 155.058594 213.371094 145.238281 223.71875 135.414063 C 211.246094 140.507813 198.773438 145.601563 186.300781 150.695313 Z M 186.300781 150.695313 "/>
<path style=" stroke:none;fill-rule:evenodd;fill:rgb(100%,100%,100%);fill-opacity:1;" d="M 113.804688 170.496094 C 110.996094 166.234375 111.722656 161.972656 115.984375 157.710938 C 114.449219 143.261719 120.636719 136.246094 130.328125 132.609375 C 146.039063 128.710938 162.589844 134.273438 180.371094 153.65625 C 185.015625 160.570313 184.90625 162.355469 184.117188 163.792969 C 181.363281 160.777344 178.609375 157.761719 175.855469 154.75 C 174.242188 156.464844 172.632813 158.179688 171.019531 159.894531 C 174.191406 162.804688 177.359375 165.714844 180.53125 168.625 C 173.59375 171.742188 167.511719 169.714844 161.824219 165.351563 C 159.121094 162.855469 157.195313 157.554688 153.714844 157.867188 C 143.476563 154.539063 133.863281 154.332031 123.9375 157.242188 C 124.613281 158.699219 125.289063 160.152344 125.964844 161.609375 C 137.1875 157.515625 149.089844 160.347656 161.980469 173.300781 C 165.773438 177.574219 168.839844 176.480469 171.800781 174.082031 C 172.164063 175.742188 172.527344 177.40625 172.890625 179.070313 C 173.308594 179.589844 173.722656 180.109375 174.140625 180.628906 C 179.078125 177.667969 182.089844 177.355469 179.441406 181.097656 C 176.164063 183.800781 173.515625 188.683594 169.617188 187.800781 C 167.382813 186.867188 166.605469 188.007813 167.28125 191.230469 C 171.59375 201.261719 175.90625 211.292969 180.21875 221.320313 C 167.585938 222.132813 154.761719 225.394531 141.710938 231.609375 C 140.203125 227.347656 138.695313 223.089844 137.1875 218.828125 C 139.632813 215.292969 142.074219 211.394531 144.515625 207.445313 C 132.613281 213.265625 128.558594 210.980469 128.300781 204.328125 C 128.328125 201.210938 128.742188 200.714844 130.871094 201.445313 C 133.054688 201.335938 134.53125 198.585938 131.421875 198.636719 C 129.863281 198.949219 129.3125 198.949219 127.753906 199.261719 C 125.648438 199.59375 124.789063 196.585938 126.277344 196.53125 C 128.511719 197 130.746094 197.050781 132.980469 196.6875 C 135.671875 196.039063 134.703125 192.875 127.523438 194.117188 C 125.703125 194.4375 124.769531 193.089844 125.652344 191.933594 C 127.316406 190.582031 129.601563 190.164063 130.640625 188.425781 C 127.9375 187.851563 126.402344 185.570313 122.535156 186.710938 C 122.40625 182.605469 123.910156 178.808594 124.246094 174.859375 C 125.078125 173.097656 124.660156 172.03125 122.996094 172.832031 C 119.703125 175.375 117.730469 175.96875 118.164063 172.988281 C 117.601563 169.71875 118.507813 166.601563 120.039063 165.039063 C 123.164063 162.664063 123.164063 159.546875 121.441406 159.582031 C 117.105469 161.199219 115.105469 164.914063 113.804688 170.496094 Z M 124.40625 143.210938 C 120.664063 146.121094 119.203125 149.863281 120.039063 154.4375 C 122.117188 152.046875 124.40625 150.277344 126.898438 149.136719 C 126.066406 147.160156 125.234375 145.1875 124.40625 143.210938 Z M 128.925781 139.78125 C 130.171875 142.328125 131.421875 144.875 132.664063 147.421875 C 137.65625 146.796875 142.644531 146.691406 147.636719 147.734375 C 148.15625 145.132813 148.675781 142.535156 149.195313 139.9375 C 142.4375 136.765625 135.679688 136.300781 128.925781 139.78125 Z M 153.714844 149.449219 L 156.828125 142.121094 L 170.710938 151.164063 L 166.496094 157.242188 Z M 133.523438 174.863281 C 132.71875 174.058594 132.148438 173.335938 131.113281 172.917969 C 129.347656 171.753906 128.621094 170.457031 130.179688 168.875 C 136.925781 164.15625 146.285156 165.546875 149.695313 170.273438 C 152.300781 171.546875 151.722656 173.078125 150.398438 172.839844 C 148.371094 173.023438 145.730469 174.449219 144.796875 172.917969 C 141.816406 172.917969 138.835938 172.917969 135.855469 172.917969 C 136.378906 175.128906 136.246094 176.863281 133.523438 174.863281 Z M 133.523438 174.863281 "/>
<path style=" stroke:none;fill-rule:evenodd;fill:rgb(100%,100%,100%);fill-opacity:1;" d="M 109.28125 158.492188 C 108.242188 162.128906 107.617188 165.765625 107.410156 169.402344 C 103.929688 167.011719 100.445313 164.621094 96.964844 162.230469 C 97.015625 158.90625 97.070313 155.582031 97.121094 152.253906 C 101.175781 154.332031 105.226563 156.410156 109.28125 158.492188 Z M 109.28125 158.492188 "/>
<path style=" stroke:none;fill-rule:evenodd;fill:rgb(100%,100%,100%);fill-opacity:1;" d="M 185.988281 183.125 C 180.574219 187.652344 173.742188 191.839844 178.503906 199.339844 C 181.988281 205.9375 185.46875 212.539063 188.949219 219.140625 C 192.328125 219.242188 195.703125 219.347656 199.085938 219.449219 C 194.871094 212.074219 190.601563 204.753906 187.234375 196.53125 C 185.46875 192.011719 185.261719 187.644531 185.988281 183.125 Z M 185.988281 183.125 "/>
<path style=" stroke:none;fill-rule:evenodd;fill:rgb(100%,100%,100%);fill-opacity:1;" d="M 135.628906 232.390625 C 132.277344 232.367188 129.160156 230.964844 127.054688 225.53125 C 124.714844 220.230469 122.535156 214.617188 120.195313 209.316406 C 93.484375 208.015625 102.316406 241.019531 93.378906 256.867188 C 103.761719 247.734375 117.351563 239.445313 135.628906 232.390625 Z M 135.628906 232.390625 "/>
<path style=" stroke:none;fill-rule:evenodd;fill:rgb(100%,100%,100%);fill-opacity:1;" d="M 110.527344 186.398438 C 61.105469 183.589844 83.710938 248.136719 70.304688 279.007813 C 103.460938 251.253906 79.398438 203.082031 119.257813 203.703125 C 116.347656 197.933594 113.4375 192.167969 110.527344 186.398438 Z M 110.527344 186.398438 "/>
<path style=" stroke:none;fill-rule:evenodd;fill:rgb(100%,100%,100%);fill-opacity:1;" d="M 96.457031 180.667969 C 92.71875 174.238281 90.628906 167.121094 90.214844 159.441406 C 89.140625 153.925781 86.652344 148.410156 84.59375 142.894531 C 76.714844 122.316406 68.832031 101.738281 60.949219 81.160156 C 59.539063 76.640625 56.6875 73.679688 52.371094 72.273438 C 48.945313 71.824219 45.515625 70.953125 42.085938 69.464844 C 40.367188 68.09375 38.757813 70.949219 39.746094 73.519531 C 40.628906 76 42.773438 77.636719 46.761719 78.042969 C 48.863281 78.539063 50.109375 79.421875 49.570313 82.09375 C 50.332031 87.488281 47.863281 96.234375 51.746094 97.53125 C 55.027344 97.324219 56.324219 99.039063 52.84375 100.335938 C 53.621094 119.253906 54.402344 138.171875 55.179688 157.085938 C 55.960938 161.039063 56.636719 164.519531 58.296875 168.9375 C 62.5625 182.34375 66.824219 195.753906 71.085938 209.160156 C 75.652344 192.09375 83.988281 182.355469 96.457031 180.667969 Z M 96.457031 180.667969 "/>
<path style=" stroke:none;fill-rule:evenodd;fill:rgb(100%,100%,100%);fill-opacity:1;" d="M 35.851563 71.75 C 31.839844 72.648438 27.707031 74.164063 23.488281 76.105469 C 23.144531 77.347656 23.195313 78.59375 25.976563 79.835938 C 24.9375 79.941406 23.902344 80.042969 22.863281 80.148438 C 22.761719 81.910156 22.65625 83.671875 22.554688 85.433594 C 24.523438 85.433594 26.492188 85.433594 28.464844 85.433594 C 27.269531 86.5 26.078125 87.5625 24.886719 88.625 C 24.082031 89.609375 24.367188 90.59375 24.808594 91.578125 C 25.898438 93.316406 26.984375 95.050781 28.074219 96.789063 C 29.207031 91.371094 31.945313 89.375 35.773438 88.46875 C 35.722656 87.015625 35.664063 85.566406 35.617188 84.113281 C 36.808594 84.113281 38.003906 84.113281 39.195313 84.113281 C 39.222656 82.273438 39.246094 80.433594 39.273438 78.59375 C 37.226563 78.539063 35.171875 78.488281 33.128906 78.4375 C 34.191406 77.890625 35.332031 76.960938 36.394531 76.414063 C 36.238281 74.730469 36.007813 73.433594 35.851563 71.75 Z M 35.851563 71.75 "/>
<path style=" stroke:none;fill-rule:evenodd;fill:rgb(100%,100%,100%);fill-opacity:1;" d="M 33.984375 109.851563 C 33.957031 105.628906 33.933594 101.402344 33.90625 97.175781 C 33.933594 94.882813 34.347656 93.042969 35.617188 92.199219 C 37.535156 90.773438 39.453125 89.347656 41.371094 87.925781 C 43.316406 90.414063 45.261719 92.902344 47.203125 95.390625 C 48.417969 97.242188 48.785156 99.238281 48.761719 101.300781 C 48.785156 104.253906 48.8125 107.210938 48.835938 110.164063 C 52.609375 113.121094 50.976563 117.449219 48.605469 115.375 C 44.039063 113.144531 39.480469 112.46875 34.914063 115.21875 C 31.414063 116.109375 30.5625 111.167969 33.984375 109.851563 Z M 33.984375 109.851563 "/>
<path style=" stroke:none;fill-rule:evenodd;fill:rgb(100%,100%,100%);fill-opacity:1;" d="M 28.308594 69.882813 C 28.28125 67.964844 28.257813 66.046875 28.230469 64.128906 C 37.539063 55.453125 48.496094 56.421875 55.523438 65.371094 C 55.417969 67.058594 55.316406 68.742188 55.214844 70.425781 C 46.554688 63.089844 37.585938 62.910156 28.308594 69.882813 Z M 28.308594 69.882813 "/>
<path style=" stroke:none;fill-rule:evenodd;fill:rgb(100%,100%,100%);fill-opacity:1;" d="M 14.386719 65.996094 C 12.5625 63.085938 11.914063 60.089844 12.988281 56.972656 C 16.632813 52.101563 16.707031 48.367188 15.164063 45.152344 C 19.527344 43 21.382813 50.972656 25.742188 39.089844 C 31.296875 39.921875 34.957031 43.804688 39.507813 37.765625 C 40.285156 36.160156 42.148438 34.472656 43.707031 37.84375 C 45.542969 40.980469 49.019531 42.09375 53.660156 39.320313 C 58.136719 36.296875 59.207031 39.511719 59.570313 42.742188 C 58.894531 47.203125 64.285156 46.214844 68.511719 45.152344 C 65.039063 49.015625 73.695313 58.789063 69.523438 65.839844 C 66.394531 43.683594 17.464844 43.878906 14.386719 65.996094 Z M 14.386719 65.996094 "/>
<path style=" stroke:none;fill-rule:evenodd;fill:rgb(100%,100%,100%);fill-opacity:1;" d="M 28.539063 29.835938 C 24.777344 19.90625 29.742188 12.984375 36.085938 10.628906 C 44.820313 7.257813 53.164063 16.5625 62.992188 8.449219 C 63.429688 10.730469 63.039063 13.011719 61.824219 15.292969 C 70.085938 18.691406 77.410156 17.675781 83.597656 11.328125 C 85.949219 27.808594 60.789063 23.648438 58.402344 34.421875 C 57.160156 33.4375 55.914063 32.453125 54.667969 31.46875 C 50.703125 35.40625 47.257813 35.097656 44.328125 30.535156 C 43.335938 29.300781 41.585938 29.078125 39.339844 29.839844 C 36.9375 30.652344 36.289063 32.222656 34.304688 33.492188 C 32.359375 34.734375 30.398438 34.238281 28.539063 29.835938 Z M 28.539063 29.835938 "/>
<path style=" stroke:none;fill-rule:evenodd;fill:rgb(61.131287%,61.914063%,62.304688%);fill-opacity:1;" d="M 255.996094 91.597656 L 255.996094 87.296875 C 264.777344 87.710938 271.621094 87.929688 276.523438 87.929688 C 281.527344 87.929688 288.195313 87.710938 296.535156 87.296875 L 296.535156 91.597656 C 289.460938 92.789063 285.632813 93.5625 284.996094 93.917969 C 283.984375 94.574219 283.472656 96.257813 283.472656 98.976563 L 283.316406 113.90625 L 283.316406 162.234375 L 302.03125 162.234375 C 305.121094 162.234375 307.175781 162.015625 308.210938 161.539063 C 309.613281 160.886719 310.964844 159.695313 312.265625 157.988281 C 313.566406 156.285156 315.863281 152.339844 319.164063 146.152344 L 323.78125 146.152344 C 321.496094 153.308594 319.253906 161.183594 317.058594 169.730469 C 302.488281 169.3125 290.355469 169.09375 280.683594 169.09375 C 272.765625 169.09375 264.53125 169.3125 255.996094 169.730469 L 255.996094 165.425781 C 262.109375 164.078125 265.460938 163.144531 266.078125 162.648438 C 266.691406 162.132813 267.078125 161.203125 267.234375 159.832031 C 267.394531 158.445313 267.464844 149.164063 267.464844 131.972656 L 267.410156 110.832031 L 267.410156 107.105469 C 267.410156 100.917969 267.234375 97.191406 266.847656 95.960938 C 266.585938 95.027344 266.113281 94.375 265.445313 93.996094 C 264.777344 93.640625 261.617188 92.828125 255.996094 91.597656 Z M 255.996094 91.597656 "/>
<path style=" stroke:none;fill-rule:evenodd;fill:rgb(61.131287%,61.914063%,62.304688%);fill-opacity:1;" d="M 337.683594 85.152344 C 340.28125 85.152344 342.484375 86.066406 344.328125 87.910156 C 346.171875 89.753906 347.078125 91.957031 347.078125 94.554688 C 347.078125 97.152344 346.171875 99.371094 344.328125 101.214844 C 342.484375 103.039063 340.28125 103.972656 337.683594 103.972656 C 335.085938 103.972656 332.867188 103.039063 331.019531 101.214844 C 329.195313 99.371094 328.265625 97.152344 328.265625 94.554688 C 328.265625 91.957031 329.175781 89.753906 330.996094 87.910156 C 332.824219 86.066406 335.046875 85.152344 337.683594 85.152344 Z M 320.828125 124.179688 L 320.828125 119.996094 C 329.613281 118.449219 337.203125 115.769531 343.613281 111.925781 L 346.570313 113.492188 C 346.03125 118.191406 345.675781 122.375 345.515625 126.042969 C 345.257813 131.496094 345.121094 140.140625 345.121094 151.960938 C 345.121094 156.917969 345.300781 160.070313 345.636719 161.421875 C 345.871094 162.3125 346.328125 162.988281 347.003906 163.421875 C 347.679688 163.878906 349.996094 164.613281 353.945313 165.664063 L 353.945313 169.730469 C 348.570313 169.3125 343.652344 169.09375 339.191406 169.09375 C 334.929688 169.09375 328.722656 169.3125 320.53125 169.730469 L 320.53125 165.664063 L 322.058594 165.328125 C 325.46875 164.535156 327.472656 163.878906 328.085938 163.304688 C 328.722656 162.75 329.097656 161.757813 329.257813 160.328125 C 329.613281 156.640625 329.773438 149.046875 329.773438 137.542969 C 329.773438 130.882813 329.613281 127.015625 329.257813 125.925781 C 328.78125 124.496094 327.691406 123.78125 325.945313 123.78125 C 324.4375 123.78125 322.730469 123.921875 320.828125 124.179688 Z M 320.828125 124.179688 "/>
<path style=" stroke:none;fill-rule:evenodd;fill:rgb(61.131287%,61.914063%,62.304688%);fill-opacity:1;" d="M 351.386719 96.65625 L 351.386719 92.589844 C 359.789063 90.925781 368.214844 88.167969 376.640625 84.339844 L 379.785156 86.125 C 378.628906 93.382813 378.0625 103.875 378.0625 117.617188 C 378.0625 118.90625 378.078125 120.769531 378.121094 123.246094 C 383.410156 118.566406 387.273438 115.613281 389.695313 114.402344 C 392.117188 113.171875 394.738281 112.558594 397.488281 112.558594 C 402.925781 112.558594 407.507813 114.582031 411.242188 118.605469 C 414.996094 122.632813 416.871094 128.621094 416.871094 136.554688 C 416.871094 146.746094 413.289063 155.054688 406.132813 161.480469 C 398.972656 167.90625 389.761719 171.136719 378.496094 171.136719 C 372.996094 171.136719 367.121094 170.007813 360.859375 167.765625 C 361.230469 156.878906 361.425781 143.414063 361.425781 127.371094 C 361.425781 109.484375 361.296875 100.066406 361.054688 99.09375 C 360.621094 97.191406 359.246094 96.238281 356.886719 96.238281 C 355.816406 96.238281 353.984375 96.378906 351.386719 96.65625 Z M 378.121094 161.300781 C 381.136719 162.789063 383.910156 163.523438 386.441406 163.523438 C 390.21875 163.523438 393.121094 162.3125 395.132813 159.914063 C 397.992188 156.503906 399.410156 151.207031 399.410156 143.988281 C 399.410156 136.59375 398.035156 131.058594 395.261719 127.371094 C 393.429688 125.011719 391.027344 123.84375 388.035156 123.84375 C 385.265625 123.84375 382.929688 124.953125 381.007813 127.171875 C 379.085938 129.414063 378.121094 133.121094 378.121094 138.296875 Z M 378.121094 161.300781 "/>
<path style=" stroke:none;fill-rule:evenodd;fill:rgb(61.131287%,61.914063%,62.304688%);fill-opacity:1;" d="M 471.710938 153.984375 L 474.976563 158.40625 C 468.378906 163.5625 462.320313 167.289063 456.773438 169.609375 C 454.386719 170.621094 451.316406 171.136719 447.597656 171.136719 C 439.773438 171.136719 433.820313 168.996094 429.714844 164.730469 C 424.492188 159.398438 421.894531 152.257813 421.894531 143.355469 C 421.894531 134.09375 424.878906 126.578125 430.828125 120.808594 C 436.808594 115.039063 444.179688 112.160156 453.011719 112.160156 C 461.070313 112.160156 466.960938 114.402344 470.699219 118.90625 C 473.171875 121.839844 474.589844 126.441406 474.976563 132.667969 C 472.871094 133.957031 470.9375 135.402344 469.132813 137.027344 C 464.703125 136.871094 460.210938 136.792969 455.65625 136.792969 C 449.679688 136.792969 444.136719 136.871094 439.019531 137.027344 C 438.976563 137.882813 438.953125 138.597656 438.953125 139.171875 C 438.953125 144.644531 440.3125 149.441406 443.019531 153.585938 C 445.726563 157.730469 449.789063 159.792969 455.203125 159.792969 C 457.847656 159.792969 460.382813 159.398438 462.789063 158.585938 C 465.199219 157.773438 468.1875 156.246094 471.710938 153.984375 Z M 439.152344 131.039063 C 441.492188 131.121094 443.425781 131.160156 444.953125 131.160156 C 448.5625 131.160156 452.96875 131 458.171875 130.683594 C 457.914063 125.765625 457.03125 122.492188 455.484375 120.867188 C 453.953125 119.242188 451.851563 118.429688 449.164063 118.429688 C 446.566406 118.429688 444.328125 119.398438 442.480469 121.34375 C 440.632813 123.265625 439.539063 126.519531 439.152344 131.039063 Z M 439.152344 131.039063 "/>
<path style=" stroke:none;fill-rule:evenodd;fill:rgb(61.131287%,61.914063%,62.304688%);fill-opacity:1;" d="M 477.355469 124.59375 L 477.355469 120.53125 C 487.617188 118.429688 495.804688 115.789063 501.921875 112.617188 L 504.882813 114.183594 C 504.183594 118.269531 503.78125 122.730469 503.65625 127.609375 C 507.867188 121.421875 510.976563 117.59375 512.984375 116.167969 C 514.972656 114.738281 517.34375 114.027344 520.074219 114.027344 C 521.933594 114.027344 523.988281 114.480469 526.203125 115.414063 C 524.941406 120.253906 523.945313 125.269531 523.226563 130.464844 L 519.015625 130.464844 C 518.804688 128.917969 518.273438 127.769531 517.40625 127.035156 C 516.539063 126.300781 515.503906 125.925781 514.320313 125.925781 C 512.496094 125.925781 510.785156 126.71875 509.15625 128.304688 C 506.722656 130.742188 505.03125 133.757813 504.078125 137.308594 C 503.589844 139.132813 503.335938 142.265625 503.335938 146.726563 C 503.335938 154.597656 503.421875 159.121094 503.589844 160.328125 C 503.761719 161.519531 504.203125 162.410156 504.945313 162.988281 C 505.6875 163.582031 507.992188 164.277344 511.820313 165.089844 C 512.371094 165.207031 513.175781 165.386719 514.253906 165.664063 L 514.253906 169.730469 C 506.40625 169.3125 500.058594 169.09375 495.214844 169.09375 C 490.007813 169.09375 484.0625 169.3125 477.355469 169.730469 L 477.355469 165.664063 C 482.328125 164.691406 485.140625 163.621094 485.796875 162.410156 C 486.746094 160.746094 487.214844 152.792969 487.214844 138.535156 C 487.214844 130.980469 486.914063 126.699219 486.285156 125.667969 C 485.671875 124.636719 484.550781 124.121094 482.941406 124.121094 C 481.714844 124.121094 479.851563 124.277344 477.355469 124.59375 Z M 477.355469 124.59375 "/>
<path style=" stroke:none;fill-rule:evenodd;fill:rgb(61.131287%,61.914063%,62.304688%);fill-opacity:1;" d="M 570.277344 116.820313 L 570.953125 117.324219 C 569.722656 119.484375 573.21875 118.84375 572.246094 121.183594 C 568.105469 120.75 555.691406 121.542969 550.890625 121.34375 L 550.714844 128.246094 L 550.535156 136.21875 L 550.355469 144.109375 C 550.355469 151.507813 550.972656 156.148438 552.199219 158.03125 C 553.410156 159.914063 555.015625 160.847656 556.980469 160.847656 C 558.488281 160.847656 560.925781 160.113281 564.296875 158.644531 L 566.398438 162.828125 C 560.550781 166.339844 556.664063 168.460938 554.71875 169.15625 C 552.121094 170.085938 549.644531 170.542969 547.28125 170.542969 C 543.671875 170.542969 540.796875 169.414063 538.65625 167.113281 C 536.515625 164.832031 535.425781 161.460938 535.425781 157.019531 L 535.664063 143.59375 L 536.117188 121.34375 L 531.414063 121.226563 C 531.003906 121.226563 529.789063 121.265625 527.828125 121.34375 L 527.828125 117.039063 C 531.539063 115.730469 534.949219 113.570313 538.078125 110.597656 C 541.195313 107.601563 544.347656 103.199219 547.519531 97.347656 L 552.636719 97.347656 C 551.621094 103.773438 551.03125 111.042969 550.890625 116.199219 C 556.960938 116.339844 564.140625 116.914063 570.277344 116.820313 Z M 570.277344 116.820313 "/>
<path style=" stroke:none;fill-rule:evenodd;fill:rgb(61.131287%,61.914063%,62.304688%);fill-opacity:1;" d="M 563.785156 120.726563 L 564.019531 116.589844 C 571.058594 116.996094 576.976563 116.667969 580.804688 116.667969 C 584.789063 116.667969 590.066406 116.453125 596.609375 116.042969 L 596.609375 120.027344 C 595.996094 120.125 595.519531 120.203125 595.222656 120.238281 C 592.863281 120.628906 591.394531 121.035156 590.859375 121.464844 C 590.324219 121.910156 590.046875 122.472656 590.046875 123.152344 C 590.046875 123.714844 590.460938 124.960938 591.277344 126.902344 L 599.980469 148.191406 L 606.902344 128.164063 C 607.636719 125.988281 607.992188 124.375 607.992188 123.328125 C 607.992188 122.667969 607.753906 122.105469 607.238281 121.636719 C 606.742188 121.171875 605.414063 120.628906 603.289063 120.027344 L 603.289063 116.042969 C 607.714844 116.453125 611.324219 116.667969 614.160156 116.667969 C 617.214844 116.667969 620.386719 116.453125 623.679688 116.042969 L 623.679688 120.027344 C 620.785156 120.917969 618.898438 121.714844 618.046875 122.414063 C 617.195313 123.09375 616.300781 124.472656 615.351563 126.53125 C 614.398438 128.59375 611.441406 136.265625 606.484375 149.492188 C 600.257813 166.195313 596.21875 176.433594 594.347656 180.21875 C 591.71875 185.542969 584.808594 201.28125 581.746094 203.335938 C 577.222656 206.371094 570.78125 207.21875 565.398438 206.242188 L 566.503906 192.128906 C 571.378906 195.960938 575.703125 195.992188 583.074219 190.460938 C 585.269531 188.8125 590.027344 174.820313 592.425781 168.214844 L 575.867188 131.503906 C 573.824219 126.882813 572.277344 124.105469 571.226563 123.171875 C 570.175781 122.242188 569.878906 120.570313 563.785156 120.726563 Z M 563.785156 120.726563 "/>
<path style=" stroke:none;fill-rule:evenodd;fill:rgb(61.131287%,61.914063%,62.304688%);fill-opacity:1;" d="M 301.769531 241.386719 L 296.628906 241.386719 C 295.484375 234.476563 293.78125 229.855469 291.484375 227.496094 C 289.183594 225.140625 286.058594 223.960938 282.121094 223.960938 C 278.578125 223.960938 275.839844 224.917969 273.859375 226.851563 C 271.890625 228.769531 270.910156 231.234375 270.910156 234.21875 C 270.910156 236.871094 271.820313 239.285156 273.628906 241.441406 C 275.453125 243.652344 279.773438 246.359375 286.585938 249.601563 C 293.414063 252.84375 298.1875 256.25 300.894531 259.84375 C 303.597656 263.492188 304.949219 267.984375 304.949219 273.34375 C 304.949219 279.8125 302.628906 285.484375 297.980469 290.367188 C 293.34375 295.246094 285.828125 297.679688 275.488281 297.679688 C 271.785156 297.679688 268.273438 297.382813 264.992188 296.8125 C 262.480469 296.425781 259.390625 295.597656 255.6875 294.328125 C 256.265625 288.007813 256.566406 281.765625 256.566406 275.613281 L 256.566406 272 L 261.605469 272 C 262.902344 279.148438 264.519531 283.9375 266.429688 286.351563 C 268.996094 289.628906 272.574219 291.25 277.121094 291.25 C 280.757813 291.25 283.671875 290.125 285.867188 287.859375 C 288.058594 285.59375 289.164063 282.703125 289.164063 279.167969 C 289.164063 276.9375 288.710938 274.964844 287.796875 273.234375 C 286.902344 271.503906 285.53125 269.9375 283.742188 268.539063 C 281.933594 267.136719 278.664063 265.277344 273.945313 262.976563 C 266.675781 259.382813 261.796875 255.917969 259.339844 252.566406 C 256.863281 249.25 255.632813 245.347656 255.632813 240.851563 C 255.632813 234.238281 257.96875 228.75 262.621094 224.402344 C 267.289063 220.035156 274.015625 217.863281 282.789063 217.863281 C 288.621094 217.863281 294.941406 219.042969 301.769531 221.382813 C 301.558594 227.019531 301.453125 230.941406 301.453125 233.132813 C 301.453125 235.695313 301.558594 238.4375 301.769531 241.386719 Z M 301.769531 241.386719 "/>
<path style=" stroke:none;fill-rule:evenodd;fill:rgb(61.131287%,61.914063%,62.304688%);fill-opacity:1;" d="M 354.539063 282.039063 L 357.519531 285.984375 C 351.511719 290.585938 345.992188 293.910156 340.941406 295.980469 C 338.769531 296.882813 335.96875 297.34375 332.578125 297.34375 C 325.453125 297.34375 320.035156 295.433594 316.296875 291.628906 C 311.539063 286.867188 309.171875 280.5 309.171875 272.554688 C 309.171875 264.292969 311.894531 257.589844 317.316406 252.441406 C 322.757813 247.292969 329.472656 244.726563 337.515625 244.726563 C 344.855469 244.726563 350.21875 246.726563 353.621094 250.742188 C 355.871094 253.359375 357.164063 257.464844 357.519531 263.019531 C 355.601563 264.171875 353.839844 265.460938 352.195313 266.914063 C 348.164063 266.769531 344.074219 266.699219 339.921875 266.699219 C 334.480469 266.699219 329.433594 266.769531 324.773438 266.914063 C 324.734375 267.671875 324.714844 268.308594 324.714844 268.824219 C 324.714844 273.707031 325.949219 277.988281 328.414063 281.683594 C 330.878906 285.382813 334.578125 287.222656 339.511719 287.222656 C 341.914063 287.222656 344.230469 286.867188 346.421875 286.144531 C 348.613281 285.417969 351.335938 284.054688 354.539063 282.039063 Z M 324.890625 261.570313 C 327.023438 261.640625 328.785156 261.675781 330.175781 261.675781 C 333.464844 261.675781 337.476563 261.535156 342.214844 261.25 C 341.976563 256.863281 341.175781 253.945313 339.765625 252.492188 C 338.371094 251.042969 336.453125 250.316406 334.011719 250.316406 C 331.644531 250.316406 329.609375 251.183594 327.925781 252.917969 C 326.242188 254.632813 325.242188 257.535156 324.890625 261.570313 Z M 324.890625 261.570313 "/>
<path style=" stroke:none;fill-rule:evenodd;fill:rgb(61.131287%,61.914063%,62.304688%);fill-opacity:1;" d="M 421.890625 247.902344 L 422.496094 249.035156 C 421.160156 251.21875 419.972656 253.503906 418.953125 255.914063 C 416.347656 255.441406 413.679688 255.175781 410.953125 255.132813 C 413.035156 258.757813 414.078125 262.300781 414.078125 265.761719 C 414.078125 269.574219 413.097656 273.078125 411.179688 276.25 C 409.242188 279.441406 406.304688 281.976563 402.386719 283.871094 C 398.449219 285.746094 394.324219 286.695313 390.011719 286.695313 C 389.09375 286.695313 387.96875 286.632813 386.65625 286.527344 C 385.363281 286.40625 383.882813 286.242188 382.195313 286.035156 C 379.632813 288.320313 378.363281 290.132813 378.363281 291.472656 C 378.363281 292.195313 378.820313 292.792969 379.757813 293.285156 C 381.238281 294.046875 384.84375 294.417969 390.636719 294.417969 L 400.699219 294.296875 C 408.929688 294.296875 414.347656 295.367188 416.996094 297.507813 C 419.640625 299.632813 420.972656 302.867188 420.972656 307.210938 C 420.972656 311.519531 419.660156 315.472656 417.058594 319.058594 C 414.453125 322.621094 410.304688 325.507813 404.574219 327.691406 C 398.867188 329.851563 392.15625 330.945313 384.46875 330.945313 C 376.050781 330.945313 369.695313 329.441406 365.421875 326.472656 C 362.441406 324.375 360.964844 321.820313 360.964844 318.8125 C 360.964844 317.59375 361.234375 316.585938 361.753906 315.78125 C 362.277344 314.980469 363.359375 314.074219 364.984375 313.082031 C 368.402344 310.984375 371.382813 308.941406 373.902344 306.984375 C 370.820313 305.894531 368.632813 304.535156 367.339844 302.867188 C 366.070313 301.21875 365.421875 299.324219 365.421875 297.136719 C 365.421875 295.859375 365.589844 294.894531 365.945313 294.253906 C 366.277344 293.59375 367.027344 292.8125 368.171875 291.886719 C 372.363281 288.628906 375.382813 286.15625 377.257813 284.46875 C 373.800781 282.820313 371.300781 280.90625 369.757813 278.742188 C 367.546875 275.671875 366.464844 271.964844 366.464844 267.636719 C 366.464844 261.394531 368.589844 256.308594 372.863281 252.351563 C 377.132813 248.417969 383.195313 246.4375 391.050781 246.4375 C 393.011719 246.4375 394.96875 246.625 396.949219 246.996094 C 398.929688 247.34375 400.910156 247.902344 402.910156 248.621094 C 407.449219 248.707031 409.847656 248.746094 410.035156 248.746094 C 414.078125 248.746094 418.015625 248.457031 421.890625 247.902344 Z M 382.570313 264.917969 C 382.570313 271.035156 383.65625 275.652344 385.800781 278.804688 C 387.074219 280.636719 388.824219 281.5625 391.050781 281.5625 C 392.925781 281.5625 394.550781 280.617188 395.90625 278.699219 C 397.28125 276.785156 397.949219 273.199219 397.949219 267.925781 C 397.949219 261.726563 396.96875 257.214844 395.03125 254.351563 C 393.761719 252.535156 392.011719 251.628906 389.78125 251.628906 C 387.78125 251.628906 386.070313 252.597656 384.675781 254.496094 C 383.28125 256.410156 382.570313 259.890625 382.570313 264.917969 Z M 380.132813 307.953125 C 376.300781 310.878906 374.382813 313.703125 374.382813 316.402344 C 374.382813 318.253906 375.527344 320.007813 377.777344 321.714844 C 380.03125 323.40625 383.46875 324.25 388.074219 324.25 C 394.21875 324.25 399.03125 323.15625 402.511719 320.972656 C 405.992188 318.8125 407.722656 316.339844 407.722656 313.558594 C 407.722656 311.867188 407.117188 310.613281 405.886719 309.808594 C 404.304688 308.738281 401.035156 308.179688 396.054688 308.179688 L 388.488281 308.304688 C 387.15625 308.304688 384.363281 308.179688 380.132813 307.953125 Z M 380.132813 307.953125 "/>
<path style=" stroke:none;fill-rule:evenodd;fill:rgb(61.131287%,61.914063%,62.304688%);fill-opacity:1;" d="M 492.46875 287.933594 L 492.46875 291.878906 C 486.730469 292.554688 482.160156 293.296875 478.746094 294.082031 C 475.339844 294.878906 471.949219 295.933594 468.601563 297.207031 L 465.800781 295.609375 C 466.273438 293.152344 466.640625 290.605469 466.863281 287.933594 C 461.800781 292.097656 458.265625 294.625 456.285156 295.554688 C 454.285156 296.480469 451.976563 296.933594 449.34375 296.933594 C 446.300781 296.933594 443.703125 296.445313 441.539063 295.480469 C 439.359375 294.5 437.746094 293.261719 436.664063 291.753906 C 435.578125 290.242188 434.886719 288.261719 434.558594 285.808594 C 434.394531 284.242188 434.335938 280.1875 434.335938 273.660156 L 434.371094 263.058594 C 434.371094 257.242188 433.949219 253.839844 433.070313 252.875 C 432.191406 251.929688 429.433594 251.277344 424.820313 250.914063 L 424.820313 247.347656 C 433.90625 246.730469 441.746094 245.566406 448.324219 243.820313 L 451.078125 245.367188 C 450.753906 247.148438 450.507813 249.765625 450.304688 253.257813 C 449.976563 259.550781 449.8125 265.058594 449.8125 269.824219 C 449.8125 277.167969 450.363281 281.914063 451.46875 284.042969 C 452.570313 286.171875 454.632813 287.242188 457.65625 287.242188 C 460.039063 287.242188 462.085938 286.570313 463.78125 285.226563 C 465.476563 283.859375 466.597656 281.804688 467.109375 279.042969 C 467.476563 277.296875 467.640625 271.714844 467.640625 262.257813 C 467.640625 256.75 467.273438 253.605469 466.539063 252.804688 C 465.800781 252.003906 463.023438 251.367188 458.183594 250.914063 L 458.183594 247.347656 C 465.128906 246.730469 470.089844 246.203125 473.09375 245.710938 C 476.074219 245.238281 479.015625 244.601563 481.894531 243.820313 L 484.691406 245.3125 C 484.097656 248.511719 483.710938 251.53125 483.566406 254.367188 C 483.242188 259.09375 483.078125 266.222656 483.078125 275.734375 C 483.078125 281.988281 483.28125 285.515625 483.691406 286.335938 C 484.199219 287.480469 485.445313 288.042969 487.445313 288.042969 L 488.101563 288.042969 C 489.101563 288.007813 490.550781 287.96875 492.46875 287.933594 Z M 492.46875 287.933594 "/>
<path style=" stroke:none;fill-rule:evenodd;fill:rgb(61.131287%,61.914063%,62.304688%);fill-opacity:1;" d="M 493.441406 251.53125 L 493.441406 247.640625 C 502.816406 245.632813 510.296875 243.109375 515.886719 240.074219 L 518.59375 241.570313 C 517.953125 245.480469 517.585938 249.75 517.472656 254.414063 C 521.316406 248.496094 524.160156 244.835938 525.996094 243.46875 C 527.8125 242.101563 529.980469 241.421875 532.472656 241.421875 C 534.175781 241.421875 536.050781 241.855469 538.078125 242.75 C 536.914063 247.378906 536.011719 252.175781 535.351563 257.148438 L 531.507813 257.148438 C 531.3125 255.667969 530.828125 254.566406 530.039063 253.863281 C 529.246094 253.164063 528.296875 252.800781 527.214844 252.800781 C 525.550781 252.800781 523.984375 253.5625 522.496094 255.078125 C 520.273438 257.414063 518.726563 260.296875 517.859375 263.691406 C 517.414063 265.4375 517.179688 268.433594 517.179688 272.703125 C 517.179688 280.234375 517.257813 284.558594 517.414063 285.71875 C 517.566406 286.855469 517.972656 287.707031 518.648438 288.257813 C 519.328125 288.828125 521.433594 289.492188 524.933594 290.269531 C 525.4375 290.382813 526.171875 290.554688 527.15625 290.820313 L 527.15625 294.710938 C 519.984375 294.3125 514.183594 294.101563 509.757813 294.101563 C 504.996094 294.101563 499.570313 294.3125 493.441406 294.710938 L 493.441406 290.820313 C 497.984375 289.890625 500.554688 288.867188 501.15625 287.707031 C 502.023438 286.117188 502.449219 278.507813 502.449219 264.867188 C 502.449219 257.640625 502.179688 253.542969 501.597656 252.554688 C 501.039063 251.570313 500.011719 251.078125 498.539063 251.078125 C 497.421875 251.078125 495.722656 251.226563 493.441406 251.53125 Z M 493.441406 251.53125 "/>
<path style=" stroke:none;fill-rule:evenodd;fill:rgb(61.131287%,61.914063%,62.304688%);fill-opacity:1;" d="M 541.949219 270.308594 C 541.949219 262.472656 544.585938 256.152344 549.878906 251.347656 C 555.152344 246.527344 562.179688 244.125 570.953125 244.125 C 579.632813 244.125 586.421875 246.34375 591.324219 250.824219 C 596.222656 255.285156 598.683594 261.425781 598.683594 269.246094 C 598.683594 278.273438 596.066406 285.300781 590.871094 290.320313 C 585.65625 295.320313 578.628906 297.832031 569.789063 297.832031 C 560.878906 297.832031 554.011719 295.503906 549.191406 290.84375 C 544.351563 286.183594 541.949219 279.339844 541.949219 270.308594 Z M 559.1875 267.511719 C 559.1875 277.425781 560.703125 284.558594 563.734375 288.929688 C 565.464844 291.4375 567.945313 292.6875 571.171875 292.6875 C 574.144531 292.6875 576.425781 291.621094 578.039063 289.472656 C 580.34375 286.402344 581.503906 281.089844 581.503906 273.542969 C 581.503906 263.917969 580.046875 257.074219 577.175781 253.007813 C 575.402344 250.460938 572.921875 249.199219 569.734375 249.199219 C 566.742188 249.199219 564.402344 250.300781 562.710938 252.484375 C 560.347656 255.484375 559.1875 260.484375 559.1875 267.511719 Z M 559.1875 267.511719 "/>
<path style=" stroke:none;fill-rule:evenodd;fill:rgb(61.131287%,61.914063%,62.304688%);fill-opacity:1;" d="M 604.394531 279.144531 L 609.34375 279.144531 C 610.28125 283.863281 611.871094 287.21875 614.085938 289.210938 C 616.296875 291.207031 618.867188 292.21875 621.808594 292.21875 C 624.039063 292.21875 625.800781 291.660156 627.09375 290.542969 C 628.40625 289.441406 629.039063 288.078125 629.039063 286.46875 C 629.039063 285 628.40625 283.582031 627.132813 282.21875 C 625.839844 280.855469 622.578125 278.757813 617.328125 275.925781 C 612.078125 273.09375 608.574219 270.507813 606.8125 268.199219 C 605.011719 265.875 604.113281 263.269531 604.113281 260.402344 C 604.113281 256.207031 605.929688 252.640625 609.550781 249.722656 C 613.183594 246.804688 618.378906 245.351563 625.144531 245.351563 C 630.019531 245.351563 635.023438 246.367188 640.140625 248.429688 C 639.671875 250.300781 639.128906 254.582031 638.546875 261.277344 L 633.769531 261.121094 C 632.996094 257.0625 631.6875 254.199219 629.851563 252.519531 C 627.996094 250.839844 625.839844 250 623.402344 250 C 621.378906 250 619.820313 250.492188 618.695313 251.46875 C 617.589844 252.449219 617.027344 253.691406 617.027344 255.230469 C 617.027344 256.574219 617.515625 257.78125 618.507813 258.863281 C 619.859375 260.367188 622.871094 262.359375 627.5625 264.808594 C 633.46875 267.921875 637.3125 270.59375 639.09375 272.851563 C 640.890625 275.105469 641.789063 277.746094 641.789063 280.785156 C 641.789063 284.929688 640.105469 288.707031 636.730469 292.167969 C 633.371094 295.609375 627.5625 297.339844 619.328125 297.339844 C 614.574219 297.339844 609.34375 296.554688 603.621094 294.980469 C 604.09375 288.96875 604.355469 283.6875 604.394531 279.144531 Z M 604.394531 279.144531 "/>
<path style=" stroke:none;fill-rule:evenodd;fill:rgb(61.131287%,61.914063%,62.304688%);fill-opacity:1;" d="M 256.929688 195.996094 L 553.074219 195.996094 L 553.074219 190.371094 L 256.929688 190.371094 Z M 256.929688 195.996094 "/>
<path style=" stroke:none;fill-rule:evenodd;fill:rgb(61.131287%,61.914063%,62.304688%);fill-opacity:1;" d="M 598.058594 195.996094 L 658.035156 195.996094 L 658.035156 190.371094 L 598.058594 190.371094 Z M 598.058594 195.996094 "/>
</g>
</svg>
